PathFileType	4	(X/Y/Z)	Apose_0-50.trc
DataRate	CameraRate	NumFrames	NumMarkers	Units	OrigDataRate	OrigDataStartFrame	OrigNumFrames
30	30	5	22	m	30	40	50
Frame#	Time	Hip			RHip			RKnee			RAnkle			RBigToe			RSmallToe			RHeel			LHip			LKnee			LAnkle			LBigToe			LSmallToe			LHeel			Neck			Head			Nose			RShoulder			RElbow			RWrist			LShoulder			LElbow			LWrist		
		X1	Y1	Z1	X2	Y2	Z2	X3	Y3	Z3	X4	Y4	Z4	X5	Y5	Z5	X6	Y6	Z6	X7	Y7	Z7	X8	Y8	Z8	X9	Y9	Z9	X10	Y10	Z10	X11	Y11	Z11	X12	Y12	Z12	X13	Y13	Z13	X14	Y14	Z14	X15	Y15	Z15	X16	Y16	Z16	X17	Y17	Z17	X18	Y18	Z18	X19	Y19	Z19	X20	Y20	Z20	X21	Y21	Z21	X22	Y22	Z22
41	1.3666666666666667	0.040505792514366847	0.9224946197501886	0.35472148015712984	0.03225798014504861	0.8822926342910712	0.46222115382841783	0.007049298308800938	0.509380690686779	0.4955734559132372	-0.0027860876934771694	0.10948222866158579	0.5135951161838467	0.2019281469149732	0.039866478308948086	0.5658569516684641	0.15044823929221898	0.03345509873412085	0.6273771963669506	-0.03763346219109859	0.03627357103156482	0.49795787081257875	0.032820095164802346	0.8811764919224866	0.2430029133195167	0.01434709572882051	0.5098751303059741	0.22267058083243405	0.006603288719337118	0.11488205875323886	0.20808253966503035	0.22253584076322167	0.048665243854152614	0.18832077926974322	0.16851303353565328	0.03604446449566451	0.12577024182229934	-0.05403733567852759	0.039288208913200055	0.20994343381814376	0.055161697100643454	1.576098808946735	0.3430931474153669	0.25021618205785706	1.8015976996741376	0.2889886596320625	0.2973316715335032	1.6508332924626639	0.32482019411371443	0.024843968241083727	1.49141558378544	0.5261440810626279	0.0832992451703913	1.2351772861918835	0.7139554781248275	0.12913252358164304	1.0431419021288093	0.8853613340639818	0.017202681924280885	1.4811684652831885	0.1466205243514226	0.029367537496479638	1.2256757819598962	0.0002479937542499607	0.08149088399476746	1.0198374066892277	-0.14564507654948738
42	1.4	0.041254839797748785	0.923898926985443	0.3545988488635905	0.03388655632572537	0.8835516175305731	0.46157035812132163	0.006712287850754914	0.5092201896736237	0.49481763740608925	-0.0013394083479348652	0.10912719400654854	0.5131586661794775	0.2054337151364886	0.04082207947077135	0.5671943501755347	0.1512681643277757	0.03161895415781409	0.6278035822194941	-0.03449236154971699	0.03339022176165268	0.4979952389721807	0.03566453517328341	0.8841953192057131	0.2420083144507232	0.014946189111525721	0.5095388574863002	0.2217609046560251	0.00615370825449636	0.11770432533775509	0.21020631652528413	0.2211430946468006	0.04919764481973665	0.18819403182365801	0.167577622384184	0.03511990902428428	0.12599084478626482	-0.052449005687226824	0.04092188509390509	0.21096603269309366	0.056930826522127394	1.5763394219700695	0.34396586700600135	0.25109216322782046	1.804571083407689	0.2827896698822086	0.2940160814468187	1.6565790097518336	0.32303670978937143	0.023046440206740477	1.4920539464608265	0.5247236277532209	0.08283551685108781	1.2343986947790753	0.713792253842728	0.12978794994079196	1.0433220854526055	0.8852813453587505	0.01587184605249733	1.480575512748478	0.14722168584368084	0.028879769251042818	1.2238927558293395	0.00043866356614149913	0.08113748868478622	1.0184514427855544	-0.14662202275571265
43	1.4333333333333333	0.04171607637337397	0.923398913378118	0.3554852813469292	0.032480201765774604	0.8830788861829876	0.4621061611421452	0.005670861087975149	0.5098681018134915	0.495522329706139	-0.0026273572127281145	0.10804522479865497	0.5144894917160207	0.20701892888020237	0.03823889052074702	0.5659657920848494	0.1515964668592474	0.03021475926086635	0.6273221294200789	-0.03399472549514684	0.0342088981892743	0.4966289223874439	0.034389647028611116	0.8828824324807414	0.24307581141211754	0.01566849668057749	0.5095030629169656	0.22082232734749474	0.005744958109916379	0.11721878245720696	0.2093726624138591	0.22039701660486416	0.04668856529367153	0.1856036715625849	0.16785937834506745	0.03498646784882174	0.12604008342489811	-0.05316963574850534	0.03979023888939295	0.2101943426562497	0.05591151252118245	1.5764829394646833	0.3435251196455135	0.24057109924591563	1.808002920574474	0.28794919074014985	0.2939127847145098	1.6588322037741658	0.32652333890596735	0.021645042983529535	1.4912594751992618	0.5251787237454102	0.08456567813279908	1.2348511713809425	0.7125071616831424	0.1328194446129841	1.0421357798074389	0.883675790683048	0.014463185288483222	1.4813732776345023	0.14812928323111513	0.027947676091879023	1.2245838835986997	0.001371497769299115	0.07694693127708031	1.014302418543065	-0.15338515118438117
44	1.4666666666666666	0.043469078312169576	0.9232593038555973	0.35589759565119033	0.03206500256677001	0.8837178174354544	0.46176039078215486	0.007164567777449507	0.5089373153705458	0.49662978194460633	-0.001737507765109688	0.10727035020978264	0.5154018648848885	0.19906396071625854	0.03323091219555512	0.5624773541737874	0.15033800874622147	0.03179042848763438	0.6301012409572643	-0.03404116348924355	0.03461370063538417	0.4967672709818574	0.03657340605846084	0.8820318116272766	0.24333678745803125	0.015522482656214696	0.5112826653358523	0.2235028756996617	0.00808149220542828	0.11715779871038287	0.21095186861977916	0.220853939185985	0.04787825863815436	0.18843629284083419	0.16760869822026736	0.036518003785484365	0.12619488358203002	-0.04308927504371827	0.05915804513007095	0.20091745186035997	0.0625517697135746	1.5971854676320532	0.35169809711315303	0.2412508435424564	1.8092953281806137	0.2838012737155709	0.28712263191029	1.6585460313416953	0.3293194976250663	0.023886841643579865	1.4905688868038467	0.5272525772096089	0.0843070621060268	1.2351024579817615	0.711958158196763	0.13608840456151605	1.0404393600074728	0.8822960138534147	0.01698409392142044	1.4813065283137432	0.14571915464330723	0.029971206030429798	1.2243814000432334	-0.0007337685043339885	0.07499121831775632	1.0146106264322297	-0.1528065185822591
45	1.5	0.04406655368286224	0.9226914836234917	0.3573345462569948	0.0332831032575894	0.8823370369729937	0.464155468382438	0.009566703825676	0.5090888938258241	0.49622590692137236	-0.009622532581765413	0.11900747426027558	0.5160391372196023	0.19660116676086242	0.03042294044714329	0.5587677452616334	0.14916965398186322	0.030999230360569563	0.6287185040889761	-0.033184201418011774	0.03542941375041572	0.49728043289222823	0.03759084144990421	0.8804326953066651	0.24591080011201483	0.018448586525017362	0.5100673366042894	0.22361134850866815	0.007151528749378957	0.11680040226596806	0.21067546142340593	0.2204013051679675	0.04771597766722754	0.18753924324259436	0.16615621096348324	0.0363149279376758	0.12613638010044254	-0.04486642633413087	0.05762237993133119	0.2019602792235275	0.05965566069445664	1.5965302759688127	0.3497855807920835	0.23976552071888171	1.8112221136075162	0.28298022955151925	0.2872329800792369	1.6617620035315568	0.33306314545251936	0.02350965447543564	1.489354281918131	0.5273623295052783	0.08577739312994453	1.235156640232635	0.7120811188044792	0.13811923986587055	1.0422375151737835	0.8813239408621508	0.014523204927439613	1.4804349849080014	0.14753287229420348	0.03233826639714194	1.2238375644586614	0.00014201210084778616	0.07762598516772608	1.0160267675470764	-0.15364517056332963
